<?xml version="1.0" standalone="no"?>
<!DOCTYPE svg PUBLIC "-//W3C//DTD SVG 20010904//EN"
 "http://www.w3.org/TR/2001/REC-SVG-20010904/DTD/svg10.dtd">
<svg version="1.0" xmlns="http://www.w3.org/2000/svg"
 width="500.000000pt" height="500.000000pt" viewBox="0 0 500.000000 500.000000"
 preserveAspectRatio="xMidYMid meet">
<metadata>
Created by potrace 1.14, written by Peter Selinger 2001-2017
</metadata>
<g transform="translate(0.000000,500.000000) scale(0.100000,-0.100000)"
fill="#000000" stroke="none">
<path d="M1597 4762 c-110 -137 -177 -262 -222 -418 -33 -114 -43 -257 -23
-334 12 -46 12 -62 1 -100 -7 -24 -18 -93 -25 -152 -22 -193 16 -523 75 -663
l25 -59 -46 -16 c-75 -25 -86 -50 -90 -199 -7 -223 22 -326 116 -420 26 -26
72 -61 103 -79 l56 -32 0 -250 0 -251 63 -64 63 -64 7 -96 c5 -60 16 -119 31
-158 l23 -62 12 40 11 40 18 -60 c19 -65 65 -162 99 -210 l21 -30 6 35 c5 30
7 32 13 15 41 -103 85 -160 177 -231 l60 -46 -6 113 -6 114 20 -47 c34 -80 81
-156 127 -206 38 -41 43 -43 34 -19 -16 45 -13 44 48 -14 68 -67 145 -129 159
-129 17 0 106 68 167 127 l58 58 -7 -35 -7 -35 29 30 c44 48 110 154 134 218
12 31 23 56 24 55 1 -2 0 -51 -4 -111 -3 -59 -3 -107 1 -107 12 0 103 77 145
122 44 48 82 115 84 145 0 10 5 3 11 -16 l9 -34 26 38 c34 50 79 151 95 211
l12 49 11 -39 11 -39 23 53 c15 35 27 90 33 159 l10 106 59 60 59 61 0 249 0
250 46 29 c77 49 150 122 176 178 33 70 37 92 43 229 l5 115 -31 42 c-18 25
-39 42 -50 42 -11 0 -45 -23 -75 -51 l-54 -52 0 86 0 86 58 47 c51 42 58 52
69 103 47 215 65 559 39 711 -17 99 -70 223 -121 285 l-25 30 -7 -25 c-13 -51
-84 -174 -137 -239 -59 -72 -121 -128 -225 -203 l-65 -48 40 0 c85 0 254 -47
254 -70 0 -4 -22 -17 -50 -28 l-50 -21 0 -166 0 -167 60 -62 60 -63 0 -265 0
-265 -81 -102 -80 -102 2 -117 c2 -98 0 -122 -14 -142 -9 -14 -17 -19 -17 -13
0 7 -16 6 -51 -4 -75 -22 -140 -6 -263 64 -115 66 -184 92 -242 93 -50 0 -138
-25 -154 -45 -7 -8 -17 -15 -23 -15 -6 0 37 45 94 101 l104 100 -43 -6 c-24
-3 -71 -17 -105 -31 l-62 -25 -82 37 c-46 20 -83 41 -83 47 0 5 16 29 35 53
l35 42 0 258 0 258 -57 58 -57 58 -264 0 c-215 0 -264 3 -268 14 -5 13 23 253
47 413 14 86 -7 78 254 93 327 18 483 30 578 46 397 68 661 212 761 415 46 93
55 163 32 243 -22 76 -51 121 -119 182 -144 132 -381 204 -670 204 -151 0
-243 -11 -355 -41 -47 -13 -84 -18 -105 -13 -52 11 -266 94 -341 131 l-69 35
7 -44 c4 -23 22 -88 40 -143 19 -55 33 -101 31 -103 -1 -1 -36 29 -78 68 -68
63 -157 183 -157 210 0 23 -21 6 -73 -58z m210 -215 c157 -126 411 -285 798
-501 104 -58 184 -106 178 -106 -38 0 -224 43 -323 75 -374 122 -720 387 -756
580 -6 34 -5 38 7 29 8 -6 51 -41 96 -77z m563 -62 c139 -42 273 -70 427 -90
166 -22 164 -22 122 21 -37 39 -118 84 -219 121 l-65 24 120 -4 c329 -13 564
-157 582 -355 l6 -60 -59 -12 c-93 -20 -308 -7 -421 24 -191 53 -369 134 -544
249 -81 53 -239 173 -239 181 0 2 39 -11 88 -30 48 -19 139 -50 202 -69z
m-200 -1596 c25 -5 62 -21 83 -35 l37 -24 0 -142 c0 -83 -7 -190 -17 -256
l-17 -114 55 -48 c45 -41 50 -49 32 -50 -41 0 -117 -32 -228 -94 l-109 -61
-86 0 c-47 0 -94 4 -104 9 -15 7 -17 6 -11 -4 6 -9 4 -11 -4 -5 -14 8 -41 66
-41 86 0 6 17 -4 39 -24 33 -30 96 -57 105 -45 2 1 -1 68 -6 148 l-9 145 -90
203 c-49 112 -89 205 -89 208 0 11 191 94 236 102 67 13 170 14 224 1z m1495
-179 c8 -16 15 -46 15 -68 0 -45 -39 -129 -76 -163 l-27 -24 7 34 c3 18 6 92
6 163 l0 129 30 -21 c17 -12 37 -34 45 -50z m-2175 -64 c0 -69 4 -137 10 -153
9 -26 7 -25 -25 12 -47 51 -72 134 -56 184 11 37 44 81 61 81 6 0 10 -51 10
-124z m1094 -641 c50 -38 196 -103 272 -121 45 -10 96 -14 147 -12 l79 5 -7
-44 c-19 -125 -84 -228 -161 -253 -75 -25 -163 15 -210 95 -22 38 -26 55 -22
95 l5 50 -145 0 c-133 0 -144 -1 -137 -17 17 -39 17 -86 0 -124 -19 -41 -68
-79 -103 -79 -38 0 -157 42 -191 67 -37 28 -75 105 -85 168 l-5 40 102 0 c80
0 117 6 172 24 80 27 164 68 215 105 19 14 36 25 38 26 2 0 18 -11 36 -25z"/>
<path d="M1110 3772 c-398 -371 -630 -855 -671 -1401 -45 -596 160 -1183 566
-1619 284 -305 722 -543 1170 -639 122 -25 146 -27 380 -28 265 0 327 8 545
67 169 46 428 160 577 254 252 161 476 378 639 620 81 121 202 366 243 492
227 692 104 1441 -331 2003 -76 99 -223 251 -297 309 l-44 34 6 -48 c4 -27 7
-89 7 -137 l0 -89 68 -71 c342 -361 543 -925 502 -1413 -31 -375 -114 -643
-287 -929 -30 -49 -38 -57 -56 -51 -12 4 -152 72 -311 151 -266 133 -290 142
-301 126 -7 -10 -45 -72 -85 -138 -41 -66 -178 -275 -305 -465 -127 -190 -251
-380 -275 -422 -42 -75 -45 -78 -89 -85 -71 -12 -380 -9 -426 5 -29 8 -44 20
-53 42 -16 36 -215 337 -422 640 -81 118 -178 266 -215 328 -37 61 -70 112
-72 112 -3 0 -140 -69 -305 -152 l-300 -153 -23 29 c-35 44 -150 271 -189 373
-129 339 -160 762 -80 1118 74 331 241 648 473 897 l44 48 7 137 c4 76 7 139
6 140 -2 2 -44 -37 -96 -85z"/>
<path d="M2707 3061 l-48 -48 31 -83 c17 -45 33 -86 35 -91 3 -4 37 6 76 22
103 44 239 49 401 16 12 -2 13 0 23 75 l6 47 65 3 65 3 -47 53 -46 52 -257 -1
-256 -1 -48 -47z"/>
</g>
</svg>
